<?xml version="1.0" encoding="utf-8"?>
<!-- Generator: Adobe Illustrator 22.0.1, SVG Export Plug-In . SVG Version: 6.00 Build 0)  -->
<svg version="1.1" id="Layer_1" xmlns="http://www.w3.org/2000/svg" xmlns:xlink="http://www.w3.org/1999/xlink" x="0px" y="0px"
	 viewBox="0 0 87.7 87.3" style="enable-background:new 0 0 87.7 87.3;" xml:space="preserve">
<path d="M85.7,50.8H66.5c-1.5-1.7-3.3-3.2-5.2-4h24.4c1.1,0,2.1-0.9,2-2c-0.1-1.1-1.2-1.9-1.3-1.9c0,0-9-6.4-9.3-6.4
	c-2.1-0.3-20.5-3.1-25-2.4c-1,0.1-1.8,0.8-2.2,1.8c-0.8,2,0.2,5.1,1.3,7H39c-0.3,0-4.6,1.8-4.6,1.8l3.5-12.8h10.8
	c0.4,0,0.8-0.3,1-0.7l0.7-2.7h9.3c0,0.1,0,0.2,0,0.3c0.5,2.5,3,4.2,6,4.2c3.7,0,6.2-2.4,6.9-4.5h5.1c0.6,0,1-0.4,1-1s-0.4-1-1-1
	h-4.9c0-0.1,0-0.2,0-0.3c-0.4-2-2-3.6-4.2-4.2l3-11h5.7c2.6,0,5.2-1.8,5.8-4.1c0.3-1.2,0.1-2.3-0.5-3.2c-0.7-1-2-1.5-3.4-1.5H65.9
	c-2.6,0-5.2,1.8-5.8,4.1c-0.3,1.2-0.1,2.3,0.6,3.2c0.7,1,2,1.5,3.4,1.5h5.4l-2.9,10.8c-0.4,0-0.9,0.1-1.3,0.1
	c-1.7,0.3-3.2,1.3-4.3,2.5c-0.5,0.6-0.9,1.3-1.1,2h-9l0.6-2.1c0.1-0.3,0.1-0.8-0.1-1s-0.5-0.4-0.8-0.4H40.3l2.1-7.9
	c0.1-0.3,0-0.6-0.2-0.9c-0.2-0.2-0.5-0.4-0.8-0.4H28.4l-5.3-4l2.3-8.4c0.1-0.5-0.2-1.1-0.7-1.2c-0.5-0.1-1.1,0.2-1.2,0.7l-2.4,8.6
	l-7.6,4.2H1c-0.6,0-1,0.4-1,1s0.4,1,1,1h12.3l4.3,5.5l-4.1,3.7c-0.3,0.3-0.4,0.7-0.3,1.1c0.1,0.4,0.5,0.6,0.9,0.6h7.2c0,0,0,0,0,0
	c0.6,0,1-0.3,1-0.8c0-0.2-0.1-0.6-0.2-0.8l-1.9-3.4l8.1-5.9h11.8l-1.9,7.1h-8.7c-0.5,0-0.8,0.3-1,0.7l-1.9,7c-0.1,0.3,0,0.6,0.2,0.9
	c0.2,0.2,0.5,0.4,0.8,0.4h8.2l-3.8,13.8c0,0-3.5,1.7-3.7,2.2h-3.4c-0.6,0-1,0.4-1,1s0.4,1,1,1h3.7c0.2,0.2,9.4,4.8,9.4,4.8
	c0.3,0.1,0.6,0.2,0.9,0.2h6.3c-0.1,1.2,0.2,2.7,1.2,4.6c1.6,2.7,5.3,3.4,8,3.5l-3.9,1.8c-1,0.5-1.4,1.6-1,2.6c0.6,1.5,2.4,5,5,5.3
	c1.1,0.2,5.3,0.2,6-0.2c0.5-0.2,1.4-0.8,2.2-1.2c0.4,0.5,6.2,10.2,9.7,11.8c1.7,0.8,8.5,3,10,3.9c0.3,0.2,0.7,0.3,1,0.3
	c0.7,0,1.3-0.3,1.7-1c0.6-0.9,0.3-2.2-0.7-2.8c-1.9-1.2-9-3.4-10.4-4.1c-1.5-0.7-5.4-6.2-6.9-8.8c-0.9-1.6-7.4-9.1-7.7-9.8
	c-0.2-1-1.2-4.6-2.9-10.7c4.6-1.3,9.5,6.2,11.4,9.6c0.2,0.4,5.9,3.4,9.5,3.9c2.7,0.4,4-2.8,4.7-4.8c0.2-0.6,0.1-1.2-0.3-1.8
	l-1.8-2.5h5.6c1.1,0,2-0.9,2-2S86.8,50.8,85.7,50.8z M62.3,8.1C62,7.8,61.9,7.3,62,6.7c0.4-1.4,2.2-2.7,3.9-2.7h13.2
	c0.8,0,1.4,0.3,1.8,0.7c0.3,0.4,0.4,0.9,0.2,1.4c-0.4,1.4-2.2,2.7-3.9,2.7H64C63.3,8.9,62.6,8.6,62.3,8.1z M66.8,23.6
	c2.1,0,3.7,1.2,4,2.8c0.4,1.9-1.8,4.4-5.1,4.4c-2.1,0-3.8-1.1-4.1-2.6C61.4,26.5,62.9,23.6,66.8,23.6z M16.8,24.5l1.9-1.7l1,1.7
	H16.8z M19.2,19.8l-3.9-4.9l6.6-3.7l4.5,3.4L19.2,19.8z M30.3,24.9h19l-1.3,4.8H29L30.3,24.9z M52.5,48.1c-0.5,0.5,0.1,2.3,0.2,2.6
	H40.2c-0.3-1.2-0.3-2.8,0-4h14.4C53.9,47,53,47.6,52.5,48.1z M54.8,40.9c-0.6-0.8-1-2.1-1.2-3c4.1-0.1,15.1,1.3,22.4,2.4l3.4,2.4H59
	C58.8,42.7,56,42.7,54.8,40.9z M35,48.6l4.1-1.8c-0.2,1.2-0.2,2.6,0,3.8L35,48.6z M49.9,57.4c-0.5-1-0.7-1.7-0.7-2.1l4.6-0.3
	c0.4,1.5,0.8,2.9,1.1,4C52.8,58.8,50.5,58.4,49.9,57.4z M59,68.9c-0.6,0.3-2.6,0-3.7-0.2c-0.3-0.2-0.6-0.6-1-1.2l3.9-1.8
	c0.5,0.6,2,2.3,2.2,2.5C59.7,68.5,59.2,68.8,59,68.9z M78,58.7c-0.2,0.4-0.4,0.8-0.5,1c-2.1-0.4-4.8-1.6-6.2-2.3
	c-0.3-0.6-0.9-1.6-1.6-2.7h5.6L78,58.7z M29.8,53.8l0.4-1.6c0.1-0.5,0.7-0.8,1.2-0.7c0.5,0.1,0.8,0.7,0.7,1.2l-0.4,1.6
	c-0.1,0.4-0.5,0.7-1,0.7c-0.1,0-0.2,0-0.3,0C30,54.8,29.7,54.3,29.8,53.8z M30.3,55.8c0.5,0.1,0.8,0.7,0.7,1.2l-0.7,2.5
	c-0.1,0.4-0.5,0.7-1,0.7c-0.1,0-0.2,0-0.3,0c-0.5-0.1-0.8-0.7-0.7-1.2l0.7-2.5C29.2,56,29.8,55.7,30.3,55.8z M28.7,61.6
	c0.5,0.1,0.8,0.7,0.7,1.2L29,64.3c-0.1,0.4-0.5,0.7-1,0.7c-0.1,0-0.2,0-0.3,0c-0.5-0.1-0.8-0.7-0.7-1.2l0.4-1.5
	C27.6,61.8,28.2,61.4,28.7,61.6z M27.6,65.6c0.5,0.1,0.8,0.7,0.7,1.2l-0.7,2.4c-0.1,0.4-0.5,0.7-1,0.7c-0.1,0-0.2,0-0.3,0
	c-0.5-0.1-0.8-0.7-0.7-1.2l0.7-2.4C26.5,65.8,27.1,65.5,27.6,65.6z M15.5,30.2l0.7-2.5c0.1-0.5,0.7-0.8,1.2-0.7
	c0.5,0.1,0.8,0.7,0.7,1.2l-0.7,2.5c-0.1,0.4-0.5,0.7-1,0.7c-0.1,0-0.2,0-0.3,0C15.6,31.3,15.3,30.8,15.5,30.2z M16.7,33.3l-0.8,3
	c-0.1,0.4-0.5,0.7-1,0.7c-0.1,0-0.2,0-0.3,0c-0.5-0.1-0.8-0.7-0.7-1.2l0.8-3c0.1-0.5,0.7-0.8,1.2-0.7C16.5,32.2,16.9,32.8,16.7,33.3
	z M12.1,42.6l0.9-3.2c0.1-0.5,0.7-0.8,1.2-0.7c0.5,0.1,0.8,0.7,0.7,1.2L14,43.1c-0.1,0.4-0.5,0.7-1,0.7c-0.1,0-0.2,0-0.3,0
	C12.3,43.7,12,43.1,12.1,42.6z M15,48.6c0,0.6-0.4,1-1,1h-2.5h0c-0.1,0-0.2,0-0.3,0c0,0,0,0-0.1,0c-0.1,0-0.1-0.1-0.2-0.1
	c-0.1,0-0.1-0.1-0.2-0.1c0,0-0.1-0.1-0.1-0.1c0-0.1-0.1-0.1-0.1-0.2c0-0.1,0-0.1-0.1-0.2c0-0.1,0-0.1,0-0.2c0,0,0,0,0-0.1
	c0,0,0-0.1,0-0.1c0,0,0-0.1,0-0.1l0.8-2.9c0.1-0.5,0.7-0.8,1.2-0.7c0.5,0.1,0.8,0.7,0.7,1.2l-0.4,1.6H14C14.6,47.6,15,48,15,48.6z
	 M17.2,49.6c-0.6,0-1-0.4-1-1s0.4-1,1-1h3.4c0.6,0,1,0.4,1,1s-0.4,1-1,1H17.2z M25.6,70.9c-0.6,0-1.3,0.1-1.9,0.2
	c-4.4,0.9-7.3,4.3-6.6,7.9c0.4,2.2,2.2,4,4.6,4.7l-0.6,2.2c-0.1,0.5,0.2,1.1,0.7,1.2c0.1,0,0.2,0,0.3,0c0.4,0,0.8-0.1,0.9-0.6
	l0.7-2.4c3.9,0.6,10.1-2.8,9.3-8.2C32.4,73,29.3,70.9,25.6,70.9z M24.3,82.2c-2.7,0-4.9-1.6-5.3-3.6c-0.5-2.9,2.7-5.8,6.6-5.7
	c2.7,0.1,4.9,1.4,5.3,3.5C31.4,78.9,28.3,82.2,24.3,82.2z"/>
</svg>
