<svg id="Layer_1" data-name="Layer 1" xmlns="http://www.w3.org/2000/svg" viewBox="0 0 547 356"><defs><style>.cls-1{fill:#fff;}.cls-2{font-size:17px;font-family:SpoqaHanSans-Regular, SpoqaHanSans;letter-spacing:-0.03em;}.cls-3{font-family:SpoqaHanSans-Bold, SpoqaHanSans;font-weight:700;}.cls-4{font-size:10px;font-family:SpoqaHanSans-Thin, SpoqaHanSans;letter-spacing:-0.03em;}.cls-5{fill:none;stroke:#1b1464;stroke-linecap:round;stroke-linejoin:round;stroke-width:2px;}.cls-6{fill:#ccc;fill-rule:evenodd;}.cls-7{fill:#1b1464;}</style></defs><title>post_1</title><rect class="cls-1" x="83" width="413" height="356"/><text class="cls-2" transform="translate(170.77 140.64)">로컬<tspan class="cls-3" x="30.43" y="0">저장소</tspan><tspan class="cls-4"><tspan x="29.64" y="16" xml:space="preserve">=  내 컴퓨터</tspan></tspan></text><text class="cls-2" transform="translate(307.77 140.64)">원격<tspan class="cls-3" x="30.43" y="0">저장소</tspan><tspan class="cls-4"><tspan x="49.21" y="16">github</tspan></tspan></text><text class="cls-2" transform="translate(351.56 287.64)">나만의<tspan class="cls-3" x="45.65" y="0">싸이트</tspan><tspan class="cls-4"><tspan x="1.16" y="16">USERNAME.github.io</tspan></tspan></text><path class="cls-5" d="M192,110a2,2,0,0,1-2,2H174a2,2,0,0,1-2-2V96a2,2,0,0,1,2-2h5l2,3h9a2,2,0,0,1,2,2Z"/><path class="cls-6" d="M348.72,86a17.18,17.18,0,0,0-5.43,33.48c.86.16,1.17-.37,1.17-.83s0-1.49,0-2.92c-4.78,1-5.79-2.3-5.79-2.3a4.55,4.55,0,0,0-1.91-2.52c-1.56-1.06.12-1,.12-1a3.59,3.59,0,0,1,2.63,1.77,3.66,3.66,0,0,0,5,1.43,3.71,3.71,0,0,1,1.09-2.3c-3.81-.43-7.82-1.91-7.82-8.49a6.65,6.65,0,0,1,1.77-4.61,6.14,6.14,0,0,1,.17-4.55s1.44-.46,4.72,1.77a16.23,16.23,0,0,1,8.6,0c3.28-2.23,4.72-1.77,4.72-1.77a6.14,6.14,0,0,1,.17,4.55,6.65,6.65,0,0,1,1.77,4.61c0,6.6-4,8-7.85,8.48a4.09,4.09,0,0,1,1.17,3.18c0,2.3,0,4.15,0,4.71s.31,1,1.18.83A17.18,17.18,0,0,0,348.72,86Z"/><rect class="cls-7" x="323.9" y="84.32" width="1.76" height="1.76"/><rect class="cls-7" x="323.9" y="87.99" width="1.76" height="1.76"/><rect class="cls-7" x="323.9" y="91.66" width="1.76" height="1.76"/><rect class="cls-7" x="323.9" y="95.34" width="1.76" height="1.76"/><path class="cls-7" d="M335.73,81.5H319.37a1.27,1.27,0,0,0-1.27,1.27v20.28a1.27,1.27,0,0,0,1.27,1.27h3.34V107l2-1.63,2,1.63v-2.65h9.1a1.27,1.27,0,0,0,1.27-1.27V82.77A1.27,1.27,0,0,0,335.73,81.5Zm0,21.55s0,0-.09,0h-9.06V101.3h-4v1.79h-3.35a.14.14,0,0,1-.08,0v-2.57h16.49v2.57Zm0-3.83H322.55V82.72h13.14s.09,0,.09,0Z"/><g id="Layer_2" data-name="Layer 2"><g id="Layer_1-2" data-name="Layer 1-2"><circle class="cls-7" cx="387" cy="230" r="1"/><circle class="cls-7" cx="389.99" cy="230" r="1"/><circle class="cls-7" cx="393" cy="230" r="1"/><path class="cls-7" d="M409,254H387a5,5,0,0,1-5-5V231a5,5,0,0,1,5-5h22a5,5,0,0,1,5,5v18A5,5,0,0,1,409,254Zm-22-26a3,3,0,0,0-3,3v18a3,3,0,0,0,3,3h22a3,3,0,0,0,3-3V231a3,3,0,0,0-3-3Z"/><path class="cls-7" d="M413,234H383a1,1,0,0,1,0-2h30a1,1,0,0,1,0,2Z"/><path class="cls-7" d="M409,250h-8a1,1,0,0,1-1-1V237a1,1,0,0,1,1-1h8a1,1,0,0,1,1,1v12A1,1,0,0,1,409,250Zm-7-2h6V238h-6Z"/><path class="cls-7" d="M393,238h-6a1,1,0,0,1,0-2h6a1,1,0,0,1,0,2Z"/><path class="cls-7" d="M397,254a1,1,0,0,1-1-1V233.09a1,1,0,0,1,2,0V253A1,1,0,0,1,397,254Z"/><path class="cls-7" d="M393,242h-6a1,1,0,0,1,0-2h6a1,1,0,0,1,0,2Z"/><path class="cls-7" d="M393,250h-6a1,1,0,0,1,0-2h6a1,1,0,0,1,0,2Z"/><path class="cls-7" d="M393,246h-6a1,1,0,0,1,0-2h6a1,1,0,0,1,0,2Z"/></g></g></svg>