<svg id="Layer_1" data-name="Layer 1" xmlns="http://www.w3.org/2000/svg" viewBox="0 0 547 356"><defs><style>.cls-1{fill:#fff;}.cls-2{font-size:17px;letter-spacing:-0.03em;}.cls-2,.cls-5{font-family:SpoqaHanSans-Regular, SpoqaHanSans;}.cls-3{font-family:SpoqaHanSans-Bold, SpoqaHanSans;font-weight:700;}.cls-4{font-size:10px;font-family:SpoqaHanSans-Thin, SpoqaHanSans;letter-spacing:-0.03em;}.cls-5{font-size:9px;letter-spacing:-0.02em;}.cls-6{letter-spacing:-0.03em;}.cls-10,.cls-7{fill:none;}.cls-7{stroke:#1b1464;stroke-linecap:round;stroke-linejoin:round;stroke-width:2px;}.cls-11,.cls-8{fill:#ccc;}.cls-8{fill-rule:evenodd;}.cls-9{fill:#1b1464;}.cls-10{stroke:#ccc;stroke-miterlimit:10;stroke-width:0.75px;}.cls-12{fill:#0e83cd;}</style></defs><title>post_1</title><rect class="cls-1" x="63" width="413" height="356"/><text class="cls-2" transform="translate(170.77 140.64)">로컬<tspan class="cls-3" x="30.43" y="0">저장소</tspan><tspan class="cls-4"><tspan x="29.64" y="16" xml:space="preserve">=  내 컴퓨터</tspan></tspan></text><text class="cls-4" transform="translate(172.27 191.64)">내 컴퓨터에서</text><text class="cls-5" transform="translate(187.27 208.64)">1. 글 수정<tspan class="cls-6"><tspan x="0" y="13">2. 테마 수정</tspan><tspan x="0" y="26">3. 글 확인 </tspan><tspan x="0" y="39">...</tspan></tspan></text><text class="cls-2" transform="translate(307.77 140.64)">원격<tspan class="cls-3" x="30.43" y="0">저장소</tspan><tspan class="cls-4"><tspan x="49.21" y="16">github</tspan></tspan></text><text class="cls-2" transform="translate(351.56 287.64)">나만의<tspan class="cls-3" x="45.65" y="0">싸이트</tspan><tspan class="cls-4"><tspan x="1.16" y="16">USERNAME.github.io</tspan></tspan></text><path class="cls-7" d="M192,110a2,2,0,0,1-2,2H174a2,2,0,0,1-2-2V96a2,2,0,0,1,2-2h5l2,3h9a2,2,0,0,1,2,2Z"/><path class="cls-8" d="M348.72,86a17.18,17.18,0,0,0-5.43,33.48c.86.16,1.17-.37,1.17-.83s0-1.49,0-2.92c-4.78,1-5.79-2.3-5.79-2.3a4.55,4.55,0,0,0-1.91-2.52c-1.56-1.06.12-1,.12-1a3.59,3.59,0,0,1,2.63,1.77,3.66,3.66,0,0,0,5,1.43,3.71,3.71,0,0,1,1.09-2.3c-3.81-.43-7.82-1.91-7.82-8.49a6.65,6.65,0,0,1,1.77-4.61,6.14,6.14,0,0,1,.17-4.55s1.44-.46,4.72,1.77a16.23,16.23,0,0,1,8.6,0c3.28-2.23,4.72-1.77,4.72-1.77a6.14,6.14,0,0,1,.17,4.55,6.65,6.65,0,0,1,1.77,4.61c0,6.6-4,8-7.85,8.48a4.09,4.09,0,0,1,1.17,3.18c0,2.3,0,4.15,0,4.71s.31,1,1.18.83A17.18,17.18,0,0,0,348.72,86Z"/><rect class="cls-9" x="323.9" y="84.32" width="1.76" height="1.76"/><rect class="cls-9" x="323.9" y="87.99" width="1.76" height="1.76"/><rect class="cls-9" x="323.9" y="91.66" width="1.76" height="1.76"/><rect class="cls-9" x="323.9" y="95.34" width="1.76" height="1.76"/><path class="cls-9" d="M335.73,81.5H319.37a1.27,1.27,0,0,0-1.27,1.27v20.28a1.27,1.27,0,0,0,1.27,1.27h3.34V107l2-1.63,2,1.63v-2.65h9.1a1.27,1.27,0,0,0,1.27-1.27V82.77A1.27,1.27,0,0,0,335.73,81.5Zm0,21.55s0,0-.09,0h-9.06V101.3h-4v1.79h-3.35a.14.14,0,0,1-.08,0v-2.57h16.49v2.57Zm0-3.83H322.55V82.72h13.14s.09,0,.09,0Z"/><path class="cls-10" d="M202.1,101.31c8.1-8.58,41.23-37.8,107.43-25.39"/><path class="cls-1" d="M204.34,103.07a2.82,2.82,0,1,1-.24-4A2.82,2.82,0,0,1,204.34,103.07Z"/><path class="cls-11" d="M204.62,103.32a3.19,3.19,0,1,0-4.51.27,3.2,3.2,0,0,0,4.51-.27Zm-4.22-3.74a2.44,2.44,0,1,1,.2,3.45,2.45,2.45,0,0,1-.2-3.45C201.3,98.57,199.5,100.58,200.4,99.58Z"/><path class="cls-1" d="M308.85,78.7a2.82,2.82,0,1,0-2.27-3.29A2.82,2.82,0,0,0,308.85,78.7Z"/><path class="cls-11" d="M308.78,79.06a3.19,3.19,0,1,1,3.72-2.56,3.18,3.18,0,0,1-3.72,2.56Zm1-5.54a2.44,2.44,0,1,0,2,2.84,2.44,2.44,0,0,0-2-2.84Z"/><path class="cls-10" d="M393,138.27c7.21,5.8,27,26.77,15.28,75.29"/><path class="cls-1" d="M391.43,140.66a2.82,2.82,0,1,1,3.94-.63A2.83,2.83,0,0,1,391.43,140.66Z"/><path class="cls-11" d="M391.21,141a3.19,3.19,0,1,0-.71-4.46,3.19,3.19,0,0,0,.71,4.46C392.63,142,389.78,139.93,391.21,141Zm3.31-4.56a2.45,2.45,0,1,1-3.41.54,2.44,2.44,0,0,1,3.41-.54Z"/><circle class="cls-1" cx="408.25" cy="213.4" r="2.82" transform="translate(-34.81 87.3) rotate(-11.71)"/><path class="cls-11" d="M405.15,212.64a3.2,3.2,0,1,1,2.35,3.86,3.2,3.2,0,0,1-2.35-3.86C405.56,210.93,404.73,214.35,405.15,212.64Zm5.48,1.33a2.44,2.44,0,1,0-2.95,1.8,2.44,2.44,0,0,0,2.95-1.8Z"/><g id="Layer_2" data-name="Layer 2"><g id="Layer_1-2" data-name="Layer 1-2"><circle class="cls-9" cx="387" cy="230" r="1"/><circle class="cls-9" cx="389.99" cy="230" r="1"/><circle class="cls-9" cx="393" cy="230" r="1"/><path class="cls-9" d="M409,254H387a5,5,0,0,1-5-5V231a5,5,0,0,1,5-5h22a5,5,0,0,1,5,5v18A5,5,0,0,1,409,254Zm-22-26a3,3,0,0,0-3,3v18a3,3,0,0,0,3,3h22a3,3,0,0,0,3-3V231a3,3,0,0,0-3-3Z"/><path class="cls-9" d="M413,234H383a1,1,0,0,1,0-2h30a1,1,0,0,1,0,2Z"/><path class="cls-9" d="M409,250h-8a1,1,0,0,1-1-1V237a1,1,0,0,1,1-1h8a1,1,0,0,1,1,1v12A1,1,0,0,1,409,250Zm-7-2h6V238h-6Z"/><path class="cls-9" d="M393,238h-6a1,1,0,0,1,0-2h6a1,1,0,0,1,0,2Z"/><path class="cls-9" d="M397,254a1,1,0,0,1-1-1V233.09a1,1,0,0,1,2,0V253A1,1,0,0,1,397,254Z"/><path class="cls-9" d="M393,242h-6a1,1,0,0,1,0-2h6a1,1,0,0,1,0,2Z"/><path class="cls-9" d="M393,250h-6a1,1,0,0,1,0-2h6a1,1,0,0,1,0,2Z"/><path class="cls-9" d="M393,246h-6a1,1,0,0,1,0-2h6a1,1,0,0,1,0,2Z"/></g></g><path class="cls-12" d="M123,169.43l-17,9.82,0,19.57,17,9.75,17-9.82,0-19.57Zm7.88,27.95-1.57.91-1.58-.93v-6.75h-9.52v6.77l-1.56.91-1.59-.93V180.61l1.58-.9,1.57.92v6.75h9.52v-6.76l1.57-.9,1.58.92Z"/></svg>