<?xml version="1.0" encoding="utf-8"?>
<!-- Generator: Adobe Illustrator 22.0.1, SVG Export Plug-In . SVG Version: 6.00 Build 0)  -->
<svg version="1.1" id="Layer_1" xmlns="http://www.w3.org/2000/svg" xmlns:xlink="http://www.w3.org/1999/xlink" x="0px" y="0px"
	 viewBox="0 0 566.9 566.9" style="enable-background:new 0 0 566.9 566.9;" xml:space="preserve">
<style type="text/css">
	.st0{fill:#377FD8;}
	.st1{fill:#231F20;}
	.st2{opacity:0.19;clip-path:url(#SVGID_2_);fill:#377FD8;}
	.st3{fill:#FFFFFF;}
	.st4{opacity:0.19;clip-path:url(#SVGID_4_);fill:#377FD8;}
</style>
<g>
	<path class="st0" d="M273,128.7c-41.5,22.7-66.7,71-61.3,118c0.5,4.2,7.1,4.2,6.6,0c-5.1-44.9,18.4-90.6,58.1-112.3
		C280.1,132.4,276.8,126.7,273,128.7L273,128.7z"/>
	<path class="st0" d="M213.4,264.8c1.6,9.9,0.6,20.1-2.9,29.4c-3,7.9-8.3,16.1-17.1,18.1c0.6,2.1,1.2,4.3,1.8,6.4
		c9.5-2.4,18-6.8,25.6-12.8c3.3-2.6-1.4-7.3-4.7-4.7c-6.7,5.3-14.4,9-22.7,11.1c-4.1,1.1-2.4,7.3,1.8,6.4
		c22.6-4.9,27.8-36.8,24.6-55.6C219.1,258.9,212.8,260.7,213.4,264.8L213.4,264.8z"/>
	<path class="st1" d="M253.3,236.2c-3-8.3-9.8-15.8-19.4-13.8c-10.1,2.1-14.9,11.9-16,21.3c-1.2,10.7,1.3,21.8,6.6,31.1
		c4.9,8.6,12.7,16.9,23.4,15.3c4.2-0.6,2.4-7-1.8-6.4c-7.5,1.1-13.2-7.3-16.3-12.9c-3.5-6.4-5.5-13.8-5.6-21.1
		c-0.1-6.6,0.9-14.5,6.6-18.8c7-5.3,13.6-0.1,16.1,7C248.3,241.9,254.7,240.2,253.3,236.2L253.3,236.2z"/>
	<path class="st1" d="M234.8,250.8c-0.4-1.9-1.4-7.5,1.3-7.6c2.2-0.1,3.5,5,4,6.8c1.5,4.9,1.8,9.8,1.3,14.9c-0.4,4.2,6.2,4.2,6.6,0
		c0.5-5.3,0.1-10.7-1.4-15.9c-1.2-4.2-3.2-9.9-6.8-12.6c-3.4-2.5-7.7-1.2-9.9,2.2c-2.6,4.1-2.6,9.4-1.6,14
		C229.4,256.7,235.8,255,234.8,250.8L234.8,250.8z"/>
	<path class="st1" d="M246,231.4c13.1-0.8,26.2-0.3,39.3-1.1c4.2-0.3,4.3-6.9,0-6.6c-13.1,0.8-26.2,0.3-39.3,1.1
		C241.8,225,241.8,231.6,246,231.4L246,231.4z"/>
	<path class="st1" d="M302.4,204.8c7.1-3.5,15-4.7,22.8-3.5c4.2,0.6,6-5.7,1.8-6.4c-9.7-1.5-19-0.2-27.9,4.1
		C295.2,201,298.6,206.7,302.4,204.8L302.4,204.8z"/>
	<path class="st1" d="M366.6,203.9c5.3-0.3,10.3,0.6,15.2,2.7c3.9,1.6,5.6-4.8,1.8-6.4c-5.4-2.3-11.1-3.2-17-2.9
		C362.3,197.5,362.3,204.1,366.6,203.9L366.6,203.9z"/>
	<path class="st1" d="M368.7,175.8c11.3,14.6,16.4,33.5,13.9,51.8c-0.6,4.2,5.8,6,6.4,1.8c2.8-20.9-2.7-41.5-15.6-58.2
		C370.8,167.7,366.1,172.4,368.7,175.8L368.7,175.8z"/>
	<path class="st1" d="M322.6,291.3c7.9,18.3,34.2,15.8,39.5-3c1.2-4.1-5.2-5.9-6.4-1.8c-3.9,13.8-21.9,14.2-27.4,1.5
		C326.6,284.1,320.9,287.4,322.6,291.3L322.6,291.3z"/>
	<path class="st1" d="M379,260.3c2.4,22-6.2,44.7-22,60.1c-9.1,8.9-19.4,14-32.3,13.8c-12.4-0.2-24.7-3.1-34.7-10.8
		c-3.4-2.6-6.7,3.1-3.3,5.7c10.8,8.4,24.6,11.5,38,11.7c13.7,0.2,24.9-4.7,35-13.8c18.2-16.4,28.6-42.2,25.9-66.6
		C385.2,256.1,378.6,256,379,260.3L379,260.3z"/>
	<path class="st1" d="M243.6,285.9c5.3,14.8,15.8,27.1,29.7,34.4c3.8,2,7.1-3.7,3.3-5.7c-12.4-6.5-21.9-17.2-26.7-30.4
		C248.6,280.1,242.2,281.9,243.6,285.9L243.6,285.9z"/>
	<path class="st1" d="M353.5,142.2c-3.9,13-17.3,19.4-29.4,22.7c-13.9,3.8-28.5,5.3-40.9,13.2c-3.6,2.3-0.3,8,3.3,5.7
		c22.8-14.5,63.8-8.1,73.4-39.9C361.2,139.8,354.8,138.1,353.5,142.2L353.5,142.2z"/>
	<path class="st1" d="M299.8,156.8c-30,12.2-47.9,38.5-61.2,66.8c-1.8,3.8,3.9,7.2,5.7,3.3c12.5-26.5,29-52.3,57.3-63.7
		C305.5,161.6,303.8,155.2,299.8,156.8L299.8,156.8z"/>
	<path class="st1" d="M322.7,99.6c-31.1-9.2-65.1-1.9-92,15.6c-27,17.5-43.6,44.4-51.7,75.2c-4.4,16.9-6.4,34.3-7.1,51.7
		c-0.2,4.3,6.4,4.2,6.6,0c1.2-28.8,5.9-58.7,20.3-84.1c14.9-26.3,41-45.1,70.1-52.5c17.1-4.4,35-4.5,51.9,0.6
		C325.1,107.2,326.8,100.8,322.7,99.6L322.7,99.6z"/>
	<path class="st1" d="M331.9,108.1c23.1,10.2,42.1,28.5,52.5,51.6c12.2,26.9,10.4,57,9.9,85.8c-0.1,4.3,6.5,4.3,6.6,0
		c0.5-30.1,1.9-61-10.8-89.1c-10.9-23.9-30.9-43.4-54.9-54C331.4,100.7,328,106.4,331.9,108.1L331.9,108.1z"/>
	<path class="st1" d="M360.4,155.1c2.9,15.8,13.1,28.1,22.9,40.2c2.7,3.3,7.3-1.4,4.7-4.7c-9.1-11.3-18.4-22.7-21.2-37.3
		C366,149.2,359.7,151,360.4,155.1L360.4,155.1z"/>
	<path class="st1" d="M169.5,254.8c-3.7,36.5-7.3,74.2,2.3,110.2c7.4,27.7,23.7,53.1,47.2,69.8c13.2,9.3,28.3,15.2,44.4,17
		c4.2,0.5,4.2-6.1,0-6.6c-27.6-3.2-51.6-20.4-67.2-42.8c-18.1-26-23.8-57.4-23.9-88.5c-0.1-19.7,1.9-39.4,3.8-59
		C176.5,250.6,169.9,250.6,169.5,254.8L169.5,254.8z"/>
	<path class="st1" d="M256.8,323.4c13.3,54.1-17.1,105.3-54.1,142.3c-3,3,1.7,7.7,4.7,4.7c38.7-38.7,69.7-92.2,55.8-148.7
		C262.2,317.5,255.8,319.2,256.8,323.4L256.8,323.4z"/>
	<circle class="st1" cx="314.2" cy="233.6" r="6.9"/>
	<g>
		<defs>
			
				<ellipse id="SVGID_1_" transform="matrix(0.8905 -0.455 0.455 0.8905 -82.6055 193.1467)" cx="360" cy="268.2" rx="24.4" ry="24.9"/>
		</defs>
		<clipPath id="SVGID_2_">
			<use xlink:href="#SVGID_1_"  style="overflow:visible;"/>
		</clipPath>
		<circle class="st2" cx="385.6" cy="268.9" r="16.6"/>
	</g>
	<g>
		<path class="st3" d="M346.3,240.5c0-16.2,11.3-29.4,25.2-29.4c13.9,0,25.2,13.2,25.2,29.4c0,16.2-11.3,29.4-25.2,29.4
			c-5.7,0-10.9-2.2-15.1-5.9"/>
		<path class="st1" d="M371.5,272.8c-6.2,0-12.1-2.3-17-6.6c-1.2-1-1.3-2.8-0.3-4c1-1.2,2.8-1.3,4-0.3c3.9,3.4,8.5,5.2,13.3,5.2
			c12.3,0,22.4-11.9,22.4-26.6c0-14.6-10-26.6-22.4-26.6s-22.4,11.9-22.4,26.6c0,1.6-1.3,2.8-2.8,2.8c-1.6,0-2.8-1.3-2.8-2.8
			c0-17.8,12.6-32.2,28-32.2c15.5,0,28,14.5,28,32.2C399.5,258.3,386.9,272.8,371.5,272.8z"/>
	</g>
	<path class="st1" d="M344.3,242.9c2,2.5,4,4.9,6,7.4c1.5,1.8,5.3,5,5.7,7.3c0.1-0.8,0.2-1.7,0.3-2.5c-3,4.3-8.4,7.9-12.3,11.5
		c-3.1,2.9,1.6,7.6,4.7,4.7c3.1-2.9,6.3-5.8,9.4-8.7c2.1-1.9,4.9-3.9,4.2-7.1c-0.7-2.7-3.5-5.1-5.2-7.2c-2.7-3.4-5.4-6.7-8.1-10.1
		C346.3,234.9,341.6,239.7,344.3,242.9L344.3,242.9z"/>
	<circle class="st1" cx="370.4" cy="236.6" r="6.9"/>
	<path class="st1" d="M311.9,267.7c-16.6,0-30.1-13.5-30.1-30.1s13.5-30.1,30.1-30.1s30.1,13.5,30.1,30.1S328.6,267.7,311.9,267.7z
		 M311.9,213.1c-13.5,0-24.5,11-24.5,24.5s11,24.5,24.5,24.5c13.5,0,24.5-11,24.5-24.5S325.4,213.1,311.9,213.1z"/>
	<path class="st1" d="M348,228.6c-0.1,0-0.1,0-0.2,0l-11.5-0.8c-1.6-0.1-2.7-1.5-2.6-3c0.1-1.6,1.5-2.7,3-2.6l11.5,0.8
		c1.6,0.1,2.7,1.5,2.6,3C350.7,227.5,349.5,228.6,348,228.6z"/>
	<path class="st1" d="M345.8,233.7c-0.1,0-0.1,0-0.2,0l-7.8-0.5c-1.6-0.1-2.7-1.5-2.6-3c0.1-1.6,1.5-2.8,3-2.6l7.8,0.5
		c1.6,0.1,2.7,1.5,2.6,3C348.5,232.6,347.3,233.7,345.8,233.7z"/>
	<g>
		<defs>
			<ellipse id="SVGID_3_" cx="304.8" cy="262.1" rx="60.2" ry="61.4"/>
		</defs>
		<clipPath id="SVGID_4_">
			<use xlink:href="#SVGID_3_"  style="overflow:visible;"/>
		</clipPath>
		<circle class="st4" cx="273.7" cy="280.2" r="40.9"/>
	</g>
</g>
</svg>
