<?xml version="1.0" encoding="UTF-8"?>
<svg width="126px" height="107px" viewBox="0 0 126 107" version="1.1" xmlns="http://www.w3.org/2000/svg" xmlns:xlink="http://www.w3.org/1999/xlink">
    <!-- Generator: Sketch 47 (45396) - http://www.bohemiancoding.com/sketch -->
    <title>Page 1</title>
    <desc>Created with Sketch.</desc>
    <defs>
        <polygon id="path-1" points="94.503 0.0002 94.503 32 0.0032 32 0.0032 0.0002"></polygon>
        <polygon id="path-3" points="94.8367 32 0.3367 32 0.3367 0.0002 94.8367 0.0002 94.8367 32"></polygon>
        <polygon id="path-5" points="95.1702 32 0.6702 32 0.6702 0.0002 95.1702 0.0002"></polygon>
    </defs>
    <g id="Page-1" stroke="none" stroke-width="1" fill="none" fill-rule="evenodd">
        <g transform="translate(0.000000, -1.000000)">
            <polygon id="Fill-1" fill="#000000" points="69.129 81.079 93.691 81.079 93.691 75.412 69.129 75.412"></polygon>
            <g id="Group-19" transform="translate(0.000000, 0.412000)">
                <path d="M104.4329,2.554 C103.0569,1.178 101.2139,0.504 99.4019,0.597 L3.3369,0.597 C3.3369,18.27 17.6639,32.583 35.3369,32.583 C41.9839,32.583 48.1569,30.556 53.2719,27.087 L62.4909,21.604 L62.5099,21.63 C63.2189,21.228 64.0269,20.98 64.8999,20.98 C67.5919,20.98 69.7749,23.162 69.7749,25.855 C69.7749,27.156 69.2499,28.323 68.4189,29.197 L1.9329,95.682 C-0.6441,98.26 -0.6441,102.477 1.9329,105.054 C4.5099,107.631 8.7269,107.631 11.3039,105.054 L12.1499,104.208 L28.3159,104.208 L47.5659,84.771 L46.5179,83.371 C45.8089,83.773 45.0019,84.021 44.1289,84.021 C41.4359,84.021 39.2539,81.838 39.2539,79.146 C39.2539,77.773 39.8259,76.537 40.7399,75.651 L40.7259,75.632 L104.4329,11.925 C107.0099,9.348 107.0099,5.131 104.4329,2.554" id="Fill-2" fill="#000000"></path>
                <path d="M36.4604,105.5002 L76.3354,81.7852 C81.4634,78.3112 87.3744,76.5002 93.5034,76.5002 C109.8184,76.5002 123.1824,89.3762 123.9674,105.5002 L36.4604,105.5002 Z" id="Fill-4" fill="#FFFFFF"></path>
                <g id="Group-8" transform="translate(31.000000, 75.000000)">
                    <mask id="mask-2" fill="white">
                        <use xlink:href="#path-1"></use>
                    </mask>
                    <g id="Clip-7"></g>
                    <path d="M62.5032,0.0002 C55.8572,0.0002 49.6842,2.0272 44.5682,5.4962 L0.0032,32.0002 L30.5032,32.0002 L94.5032,32.0002 C94.5032,14.3272 80.1762,0.0002 62.5032,0.0002 M62.5032,3.0002 C77.4812,3.0002 89.8432,14.4142 91.3492,29.0002 L30.5032,29.0002 L10.9172,29.0002 L46.1022,8.0742 C46.1522,8.0442 46.2032,8.0122 46.2522,7.9792 C51.0562,4.7222 56.6752,3.0002 62.5032,3.0002" id="Fill-6" fill="#000000" mask="url(#mask-2)"></path>
                </g>
                <path d="M26.7937,105.5002 L66.6687,81.7852 C71.7967,78.3112 77.7077,76.5002 83.8367,76.5002 C100.1517,76.5002 113.5157,89.3762 114.3007,105.5002 L26.7937,105.5002 Z" id="Fill-9" fill="#FFFFFF"></path>
                <g id="Group-13" transform="translate(21.000000, 75.000000)">
                    <mask id="mask-4" fill="white">
                        <use xlink:href="#path-3"></use>
                    </mask>
                    <g id="Clip-12"></g>
                    <path d="M62.8367,0.0002 C56.1907,0.0002 50.0177,2.0272 44.9017,5.4962 L0.3367,32.0002 L30.8367,32.0002 L94.8367,32.0002 C94.8367,14.3272 80.5097,0.0002 62.8367,0.0002 M62.8367,3.0002 C77.8147,3.0002 90.1767,14.4142 91.6827,29.0002 L30.8367,29.0002 L11.2507,29.0002 L46.4357,8.0742 C46.4857,8.0442 46.5367,8.0122 46.5857,7.9792 C51.3897,4.7222 57.0087,3.0002 62.8367,3.0002" id="Fill-11" fill="#000000" mask="url(#mask-4)"></path>
                </g>
                <path d="M12.127,105.5002 L52.002,81.7852 C57.13,78.3112 63.041,76.5002 69.17,76.5002 C85.485,76.5002 98.849,89.3762 99.634,105.5002 L12.127,105.5002 Z" id="Fill-14" fill="#FFFFFF"></path>
                <g id="Group-18" transform="translate(6.000000, 75.000000)">
                    <mask id="mask-6" fill="white">
                        <use xlink:href="#path-5"></use>
                    </mask>
                    <g id="Clip-17"></g>
                    <path d="M63.1702,0.0002 C56.5242,0.0002 50.3512,2.0272 45.2352,5.4962 L0.6702,32.0002 L31.1702,32.0002 L95.1702,32.0002 C95.1702,14.3272 80.8432,0.0002 63.1702,0.0002 M63.1702,3.0002 C78.1482,3.0002 90.5102,14.4142 92.0162,29.0002 L31.1702,29.0002 L11.5842,29.0002 L46.7692,8.0742 C46.8192,8.0442 46.8702,8.0122 46.9192,7.9792 C51.7232,4.7222 57.3422,3.0002 63.1702,3.0002" id="Fill-16" fill="#000000" mask="url(#mask-6)"></path>
                </g>
            </g>
        </g>
    </g>
</svg>