<?xml version="1.0" encoding="utf-8"?>
<!-- Generator: Adobe Illustrator 22.0.1, SVG Export Plug-In . SVG Version: 6.00 Build 0)  -->
<svg version="1.1" id="Layer_1" xmlns="http://www.w3.org/2000/svg" xmlns:xlink="http://www.w3.org/1999/xlink" x="0px" y="0px"
	 viewBox="0 0 144 76" style="enable-background:new 0 0 144 76;" xml:space="preserve">
<style type="text/css">
	.st0{fill:#525252;}
	.st1{font-family:'NotoSansCJKkr-Thin-KSCpc-EUC-H';}
	.st2{font-size:6px;}
	.st3{font-family:'NotoSansCJKkr-Bold-KSCpc-EUC-H';}
	.st4{font-size:12px;}
</style>
<text transform="matrix(1 0 0 1 20.1371 13)"><tspan x="0" y="0" class="st0 st1 st2">나는야</tspan><tspan x="0" y="6.5" class="st0 st3 st2">가비지</tspan><tspan x="0" y="13" class="st0 st3 st2">콜렉션</tspan></text>
<g>
	<path d="M55.9,62V51h1v-1c0-2.8-2.2-5-5-5h-8V11c0-2.2-1.8-4-4-4s-4,1.8-4,4v34h-8c-2.8,0-5,2.2-5,5v1h1v11c0,3.9,3.1,7,7,7h16
		v-1.2c1.4,0.7,3.2,1.2,5,1.2h9v-2C58.1,67,55.9,64.8,55.9,62z M37.9,11c0-1.1,0.9-2,2-2s2,0.9,2,2v29h-4V11z M37.9,42h4v3h-4V42z
		 M27.9,47h24c1.3,0,2.4,0.8,2.8,2H25.1C25.5,47.8,26.6,47,27.9,47z M30.9,67c-2.8,0-5-2.2-5-5V51h5v11c0,2,0.8,3.7,2.1,5H30.9z
		 M51.9,67c-3.9,0-7-2.2-7-5h-2c0,2,0.4,3.7,1.1,5h-6.1c-2.8,0-5-2.2-5-5V51h16v4h2v-4h3v11c0,2,0.8,3.7,2.1,5H51.9z"/>
	<rect x="48.9" y="57" width="2" height="2"/>
	<path d="M13.9,58h-2c0,1.8,0.4,3.5,1.2,5c-2.6-2.6-4.2-6.1-4.2-10h-2c0,8.8,7.2,16,16,16v-2C17.9,67,13.9,63,13.9,58z"/>
	<rect x="62.9" y="67" width="5" height="2"/>
	<path d="M15.9,56c0,1.7,1.3,3,3,3c1.7,0,3-1.3,3-3s-1.3-3-3-3C17.2,53,15.9,54.3,15.9,56z M19.9,56c0,0.6-0.4,1-1,1s-1-0.4-1-1
		s0.4-1,1-1S19.9,55.4,19.9,56z"/>
	<path d="M15.9,44c2.2,0,4-1.8,4-4s-1.8-4-4-4s-4,1.8-4,4S13.7,44,15.9,44z M15.9,38c1.1,0,2,0.9,2,2s-0.9,2-2,2s-2-0.9-2-2
		S14.8,38,15.9,38z"/>
	<rect x="11.9" y="54" width="2" height="2"/>
	<rect x="6.9" y="49" width="2" height="2"/>
	<rect x="6.9" y="45" width="2" height="2"/>
</g>
<text transform="matrix(1 0 0 1 75.2621 26)"><tspan x="0" y="0" class="st3 st4">안 쓰는 </tspan><tspan x="0" y="14.4" class="st1 st4">메모리는 </tspan><tspan x="0" y="28.8" class="st1 st4">치워버리자!</tspan></text>
</svg>
